<?xml version="1.0" encoding="UTF-8" standalone="no"?>
<svg
   id="Layer_1"
   version="1.1"
   viewBox="0 0 1024 211.7"
   sodipodi:docname="CurveaLogo-Dark.svg"
   inkscape:version="1.2.2 (b0a8486541, 2022-12-01)"
   xmlns:inkscape="http://www.inkscape.org/namespaces/inkscape"
   xmlns:sodipodi="http://sodipodi.sourceforge.net/DTD/sodipodi-0.dtd"
   xmlns="http://www.w3.org/2000/svg"
   xmlns:svg="http://www.w3.org/2000/svg">
  <sodipodi:namedview
     id="namedview32"
     pagecolor="#505050"
     bordercolor="#eeeeee"
     borderopacity="1"
     inkscape:showpageshadow="0"
     inkscape:pageopacity="0"
     inkscape:pagecheckerboard="0"
     inkscape:deskcolor="#505050"
     showgrid="false"
     inkscape:zoom="1.2724609"
     inkscape:cx="445.98619"
     inkscape:cy="106.48657"
     inkscape:window-width="1920"
     inkscape:window-height="1011"
     inkscape:window-x="0"
     inkscape:window-y="0"
     inkscape:window-maximized="1"
     inkscape:current-layer="Layer_1" />
  <!-- Generator: Adobe Illustrator 29.5.1, SVG Export Plug-In . SVG Version: 2.1.0 Build 141)  -->
  <defs
     id="defs11">
    <style
       id="style2">
      .st0 {
        fill: #fff;
      }

      .st1 {
        fill: url(#linear-gradient);
      }
    </style>
    <linearGradient
       id="linear-gradient"
       x1="652.99"
       y1="64.17"
       x2="995.63"
       y2="146.73"
       gradientUnits="userSpaceOnUse">
      <stop
         offset="0"
         stop-color="#507abd"
         id="stop4" />
      <stop
         offset=".5"
         stop-color="#7562ab"
         id="stop6" />
      <stop
         offset="1"
         stop-color="#eb4998"
         id="stop8" />
    </linearGradient>
  </defs>
  <path
     class="st0"
     d="M505.06,66.54h-39.56c-13.56,0-24.57,10.98-24.57,24.54v103.35h-49.14v-127.89c0-13.56,5.5-25.86,14.39-34.75,8.92-8.89,21.19-14.39,34.75-14.39h43.46l20.67,49.14Z"
     id="path13"
     style="fill:#1e1e1e;fill-opacity:1" />
  <path
     class="st0"
     d="M26.48,111.83c2.54,45.29,41.04,81.57,85.72,82.53v.06h142.99c-21.47-9.76-38.87-27.56-48.59-49.14h-91.85c-51.73-.93-51.72-77.86.03-78.75h82.79V17.4c-11.93.37-89.03-1.18-98.79,1.43C55.33,26.35,23.1,67.36,26.48,111.83Z"
     id="path15"
     style="fill:#1e1e1e;fill-opacity:1" />
  <path
     class="st0"
     d="M221.15,154.1c-.05-.06-.1-.13-.14-.2h.04c.03.08.06.13.1.2Z"
     id="path17" />
  <path
     class="st0"
     d="M383.19,17.4v88.66h-.06c.32,87.85-120.41,120.72-163.34,46-.55-.96-1.15-1.89-1.76-2.81-19.32-29.24-9.74-99.52-11.87-131.86h49.13v86c-.73,52.54,79.47,52.56,78.75.02.12-.26-.14-81.21-.02-81.49h.03v-4.53h49.14Z"
     id="path19"
     style="fill:#1e1e1e;fill-opacity:1" />
  <path
     class="st0"
     d="M221.15,154.1c-.05-.06-.1-.13-.14-.2h.04c.03.08.06.13.1.2Z"
     id="path21" />
  <path
     class="st0"
     d="M568.3,194.23L494.02,17.59h56.17l40.65,109.38,41.39-109.38h53.21l-74.65,176.64h-42.5Z"
     id="path23"
     style="fill:#1e1e1e;fill-opacity:1" />
  <path
     class="st1"
     d="M863.92,194.42c-8.94-4.13-16.86-9.63-23.59-16.4-6.59-6.65-12.01-14.53-16.11-23.48h-69.46c-10,0-19.06-.63-27.15-1.95-8.11-1.26-14.99-3.55-20.73-6.88-5.73-3.3-10.23-7.77-13.56-13.42-3.35-5.62-5.36-12.79-6.08-21.53h127.11c.26-2.58.37-5.27.37-8.08v-7.4c0-13.67-2.15-25.37-6.42-35.12-4.3-9.78-10.06-17.83-17.32-24.17-7.25-6.39-15.74-11.09-25.37-14.1-9.46-3.01-19.47-4.56-29.99-4.59h-40.54l-49.77,117.8c1.12,4.01,2.47,7.8,4.07,11.32,5.22,11.52,12.67,20.81,22.33,27.86,9.63,7.05,21.04,12.18,34.26,15.37,13.02,3.12,27.46,4.67,43.37,4.73v.03h114.56ZM707.25,59.08c7.14-5.05,16.05-7.54,26.78-7.54s18.66,2.72,23.91,8.26,7.85,12.18,7.85,19.95h-74.28c3.35-8.69,8.6-15.6,15.74-20.67ZM991.69,66.71c-4.04-11.07-9.8-20.24-17.32-27.52-7.51-7.31-16.54-12.79-27.15-16.43-10.58-3.64-22.42-5.45-35.52-5.45-13.82,0-26.2,2.41-37.15,7.22-10.95,4.82-20.15,11.41-27.66,19.75-7.48,8.34-13.22,18.29-17.14,29.81-3.93,11.52-5.88,23.99-5.88,37.41,0,12.7,1.95,24.17,5.88,34.4.03.06.03.09.06.14,3.93,10.18,9.43,18.81,16.54,25.97,7.17,7.17,15.65,12.7,25.54,16.57,9.89,3.87,20.9,5.82,33.03,5.82,2.41,0,4.7-.09,6.94-.26,9.12-.63,16.94-2.61,23.42-5.91,8.08-4.13,14.65-9,19.64-14.65v20.81h42.86v-88.93c0-14.79-2.04-27.75-6.08-38.79ZM940.98,143.97c-7.14,8.46-16.77,12.7-28.93,12.7h-.2c-10.98-.06-19.92-3.58-26.8-10.61-.66-.66-1.29-1.35-1.92-2.09-7.14-8.46-10.69-21.16-10.69-38.1s3.55-29.64,10.69-38.1c7.17-8.49,16.8-12.73,28.93-12.73s21.79,4.24,28.93,12.73c7.14,8.46,10.72,21.16,10.72,38.1s-3.58,29.64-10.72,38.1Z"
     id="path25" />
  <path
     class="st0"
     d="M26.66,190.65"
     id="path27" />
  <path
     class="st0"
     d="M26.66,22.76"
     id="path29" />
</svg>
