<?xml version="1.0" encoding="UTF-8"?>
<svg id="Layer_1" data-name="Layer 1" xmlns="http://www.w3.org/2000/svg" viewBox="0 0 971.54 177.16">
  <defs>
    <style>
      .cls-1 {
        fill: #1e1e1e;
      }
    </style>
  </defs>
  <path class="cls-1" d="M478.82,49.27h-39.56c-13.56,0-24.57,10.98-24.57,24.54v103.35h-49.14V49.27c0-13.56,5.5-25.86,14.39-34.75C388.86,5.63,401.13.13,414.69.13h43.46s20.67,49.14,20.67,49.14Z"/>
  <path class="cls-1" d="M.24,94.56c2.54,45.29,41.04,81.57,85.72,82.53v.06h142.99c-21.47-9.76-38.87-27.56-48.59-49.14h-91.85c-51.73-.93-51.72-77.86.03-78.75h82.79V.13c-11.93.37-89.03-1.18-98.79,1.43C29.09,9.08-3.14,50.09.24,94.56Z"/>
  <path class="cls-1" d="M356.95.13v88.66h-.06c.32,87.85-120.41,120.72-163.34,46-.55-.96-1.15-1.89-1.76-2.81-19.32-29.24-9.74-99.52-11.87-131.86h49.13v86c-.73,52.54,79.47,52.56,78.75.02.12-.26-.14-81.21-.02-81.49h.03V.12h49.14,0Z"/>
  <path class="cls-1" d="M542.06,176.96L467.78.32h56.17l40.65,109.38L605.99.32h53.21l-74.65,176.64h-42.5,0Z"/>
  <path class="cls-1" d="M837.68,177.15c-8.94-4.13-16.86-9.63-23.59-16.4-6.59-6.65-12.01-14.53-16.11-23.48h-69.46c-10,0-19.06-.63-27.15-1.95-8.11-1.26-14.99-3.55-20.73-6.88-5.73-3.3-10.23-7.77-13.56-13.42-3.35-5.62-5.36-12.79-6.08-21.53h127.11c.26-2.58.37-5.27.37-8.08v-7.4c0-13.67-2.15-25.37-6.42-35.12-4.3-9.78-10.06-17.83-17.32-24.17-7.25-6.39-15.74-11.09-25.37-14.1-9.46-3.01-19.47-4.56-29.99-4.59h-40.54l-49.77,117.8c1.12,4.01,2.47,7.8,4.07,11.32,5.22,11.52,12.67,20.81,22.33,27.86,9.63,7.05,21.04,12.18,34.26,15.37,13.02,3.12,27.46,4.67,43.37,4.73v.03h114.58ZM681.01,41.81c7.14-5.05,16.05-7.54,26.78-7.54s18.66,2.72,23.91,8.26,7.85,12.18,7.85,19.95h-74.28c3.35-8.69,8.6-15.6,15.74-20.67ZM965.45,49.44c-4.04-11.07-9.8-20.24-17.32-27.52-7.51-7.31-16.54-12.79-27.15-16.43-10.58-3.64-22.42-5.45-35.52-5.45-13.82,0-26.2,2.41-37.15,7.22-10.95,4.82-20.15,11.41-27.66,19.75-7.48,8.34-13.22,18.29-17.14,29.81-3.93,11.52-5.88,23.99-5.88,37.41,0,12.7,1.95,24.17,5.88,34.4.03.06.03.09.06.14,3.93,10.18,9.43,18.81,16.54,25.97,7.17,7.17,15.65,12.7,25.54,16.57,9.89,3.87,20.9,5.82,33.03,5.82,2.41,0,4.7-.09,6.94-.26,9.12-.63,16.94-2.61,23.42-5.91,8.08-4.13,14.65-9,19.64-14.65v20.81h42.86v-88.93c0-14.79-2.04-27.75-6.08-38.79v.04ZM914.74,126.7c-7.14,8.46-16.77,12.7-28.93,12.7h-.2c-10.98-.06-19.92-3.58-26.8-10.61-.66-.66-1.29-1.35-1.92-2.09-7.14-8.46-10.69-21.16-10.69-38.1s3.55-29.64,10.69-38.1c7.17-8.49,16.8-12.73,28.93-12.73s21.79,4.24,28.93,12.73c7.14,8.46,10.72,21.16,10.72,38.1s-3.58,29.64-10.72,38.1h-.01Z"/>
</svg>